<svg xmlns="http://www.w3.org/2000/svg" viewBox="0 0 64 64" id="insta"><path fill="#222" d="M44.62 22.15a2.212 2.212 0 0 1-.77-.15 2.18 2.18 0 0 1-.34-.18 2.242 2.242 0 0 1-.31-.25 2.02 2.02 0 0 1-.58-1.42 1.702 1.702 0 0 1 .04-.39 1.567 1.567 0 0 1 .11-.37 2.237 2.237 0 0 1 .18-.35 2.39 2.39 0 0 1 .25-.3 2.257 2.257 0 0 1 .31-.25 2.179 2.179 0 0 1 .34-.181 2.449 2.449 0 0 1 .38-.12 2.003 2.003 0 0 1 1.8.551 1.817 1.817 0 0 1 .25.3 2.373 2.373 0 0 1 .19.35 2.322 2.322 0 0 1 .11.37 2.638 2.638 0 0 1 .04.39 1.988 1.988 0 0 1-.59 1.42 1.76 1.76 0 0 1-.301.25 2.237 2.237 0 0 1-.349.18 1.572 1.572 0 0 1-.37.11 1.708 1.708 0 0 1-.39.04zM32 42.934A10.935 10.935 0 1 1 42.935 32 10.947 10.947 0 0 1 32 42.935zm0-18.87A7.936 7.936 0 1 0 39.935 32 7.944 7.944 0 0 0 32 24.064z"></path><path fill="#222" d="M27.564 33.5a1.5 1.5 0 0 1-1.5-1.5 5.944 5.944 0 0 1 3.971-5.6 1.5 1.5 0 1 1 .994 2.83A2.942 2.942 0 0 0 29.064 32a1.5 1.5 0 0 1-1.5 1.5Z"></path><path fill="#222" d="M39 55.5H25A16.52 16.52 0 0 1 8.5 39V25A16.52 16.52 0 0 1 25 8.5h14A16.52 16.52 0 0 1 55.5 25v14A16.52 16.52 0 0 1 39 55.5Zm-14-44A13.515 13.515 0 0 0 11.5 25v14A13.515 13.515 0 0 0 25 52.5h14A13.515 13.515 0 0 0 52.5 39V25A13.515 13.515 0 0 0 39 11.5Z"></path></svg>